<?xml version="1.0" encoding="utf-8"?>
<!-- Generator: Adobe Illustrator 16.0.0, SVG Export Plug-In . SVG Version: 6.00 Build 0)  -->
<!DOCTYPE svg PUBLIC "-//W3C//DTD SVG 1.1//EN" "http://www.w3.org/Graphics/SVG/1.1/DTD/svg11.dtd">
<svg version="1.1" id="Layer_1" xmlns="http://www.w3.org/2000/svg" xmlns:xlink="http://www.w3.org/1999/xlink" x="0px" y="0px"
	 width="512px" height="512px" viewBox="0 0 512 512" enable-background="new 0 0 512 512" xml:space="preserve">
<path fill="#EEEEEE" d="M352,288c0,53-43,96-96,96c-53.016,0-96-43-96-96s42.984-96,96-96C309,192,352,235,352,288z M512,160v256
	c0,35.344-28.656,64-64,64H64c-35.344,0-64-28.656-64-64V160c0-35.344,28.656-64,64-64h96V64c0-17.688,14.328-32,32-32h128
	c17.688,0,32,14.313,32,32v32h96C483.344,96,512,124.656,512,160z M384,288c0-70.563-57.438-128-128-128
	c-70.578,0-128,57.438-128,128s57.422,128,128,128C326.563,416,384,358.563,384,288z M480,128h-96v64h96V128z"/>
</svg>
