<?xml version="1.0" encoding="iso-8859-1"?>
<!-- Generator: Adobe Illustrator 17.1.0, SVG Export Plug-In . SVG Version: 6.00 Build 0)  -->
<!DOCTYPE svg PUBLIC "-//W3C//DTD SVG 1.1//EN" "http://www.w3.org/Graphics/SVG/1.1/DTD/svg11.dtd">
<svg version="1.1" id="Capa_1" xmlns="http://www.w3.org/2000/svg" xmlns:xlink="http://www.w3.org/1999/xlink" x="0px" y="0px"
	 viewBox="0 0 294 294" style="enable-background:new 0 0 294 294;" xml:space="preserve">
<path fill="#777777" d="M279.333,117h-18.178C258.423,107,254.3,96.814,249,87.747l13.383-13.361c5.857-5.857,5.858-15.344,0-21.202l-20.737-20.733
	c-2.813-2.813-6.628-4.391-10.606-4.391c-3.978,0-7.794,1.581-10.606,4.395l-13.516,13.254c-9.308-5.519-19.417-9.796-30.417-12.591
	V15c0-8.284-6.191-15-14.476-15h-29.327C124.413,0,117.5,6.716,117.5,15v18.118c-10,2.684-19.944,6.729-28.944,11.933L76.168,32.613
	c-5.857-5.857-15.331-5.857-21.188,0L34.254,53.351c-5.858,5.857-5.852,15.355,0.006,21.213l12.117,12.071
	C40.759,96.008,36.411,106,33.567,117H15.833C7.549,117,0.5,123.802,0.5,132.086v29.328C0.5,169.698,7.549,176,15.833,176h17.613
	c2.794,11,7.094,21.211,12.652,30.584l-11.989,12.092c-5.858,5.857-5.858,15.407,0,21.265l20.737,20.763
	c2.929,2.929,6.768,4.406,10.606,4.406s7.678-1.458,10.606-4.387l12.02-12.115c9.133,5.338,18.421,9.487,29.421,12.218V278.5
	c0,8.284,6.913,15.5,15.197,15.5h29.327c8.284,0,14.476-7.216,14.476-15.5v-17.673c11-2.843,21.456-7.217,30.894-12.874
	l13.065,12.934c2.929,2.929,6.833,4.394,10.672,4.394s7.711-1.465,10.639-4.394l20.754-20.737
	c5.858-5.857,5.867-15.355,0.008-21.213l-13.254-13.465c5.242-9.065,9.314-18.471,11.997-29.471h18.058
	c8.284,0,14.167-6.302,14.167-14.586v-29.328C293.5,123.802,287.617,117,279.333,117z M191.016,146.973
	c0,24.071-19.583,43.654-43.654,43.654s-43.654-19.583-43.654-43.654s19.583-43.654,43.654-43.654S191.016,122.901,191.016,146.973z
	"/>
<g>
</g>
<g>
</g>
<g>
</g>
<g>
</g>
<g>
</g>
<g>
</g>
<g>
</g>
<g>
</g>
<g>
</g>
<g>
</g>
<g>
</g>
<g>
</g>
<g>
</g>
<g>
</g>
<g>
</g>
</svg>
